# xmcd
#
# Track frame offsets:
#	150
#	20271
#	31752
#	47922
#	64290
#	80601
#	97282
#	116675
#	133217
#	151573
#	167414
#	187432
#	200632
#	212184
#	229941
#	247510
#	262295
#	281241
#	296408
#	316261
#
# Disc length: 4449 seconds
#
# Revision: 0
# Processed by: cddbd v1.5.2PL0 Copyright (c) Steve Scherf et al.
# Submitted via: EZCDAudioConverter 3.0.3.2
#
DISCID=2e115f14
DTITLE=Flash Back Sertanejo
DYEAR=2011
DGENRE=Sertanejo
TTITLE0=Trio parada dura - Luz da minha vida
TTITLE1=Teodoro e Sampaio - Amigos de bar
TTITLE2=Chrystian and Ralf - A Saideira
TTITLE3=Rionegro and Solimoes - Madrugada Triste
TTITLE4=Gian and Giovani - Taça de pranto
TTITLE5=Bruno and Marrone - Deixa
TTITLE6=Ataide and Alexandre - Laço Aberto
TTITLE7=Fatima Leao - Pecado de amor
TTITLE8=Rick and Renner - So quero te dizer
TTITLE9=Chrystian and Ralf - É so dizer o preço
TTITLE10=Bruno and Marrone - Se nao tivesse ido
TTITLE11=Gian and Giovani - Meu Ultimo amor
TTITLE12=Joao Mineiro and Marciano - Esconda o que houver
TTITLE13=Bruno and Marrone - Choram as rosas
TTITLE14=Milionario and jose Rico - Praia deserta
TTITLE15=Joao Mineiro and Marciano - O cara errado
TTITLE16=Gian and Giovani - Cadê aquele amor
TTITLE17=Rick and Renner - Preciso te encontrar
TTITLE18=Chrystian and Ralf - No mesmo olhar
TTITLE19=Milionario and jose Rico - Homens
EXTD=
EXTT0=
EXTT1=
EXTT2=
EXTT3=
EXTT4=
EXTT5=
EXTT6=
EXTT7=
EXTT8=
EXTT9=
EXTT10=
EXTT11=
EXTT12=
EXTT13=
EXTT14=
EXTT15=
EXTT16=
EXTT17=
EXTT18=
EXTT19=
PLAYORDER=
